<?xml version="1.0" standalone="no"?><!DOCTYPE svg PUBLIC "-//W3C//DTD SVG 1.1//EN" "http://www.w3.org/Graphics/SVG/1.1/DTD/svg11.dtd"><svg t="1684936175702" class="icon" viewBox="0 0 1024 1024" version="1.1" xmlns="http://www.w3.org/2000/svg" p-id="2417" xmlns:xlink="http://www.w3.org/1999/xlink" width="200" height="200"><path d="M892 331.7L711 504.8c-6.1 5.9-6.3 15.6-0.4 21.7l175.3 179.7c26.8 27.4 39.6 62.7 36 99.1-3.4 34.5-22 66.6-51.3 88.3-23.3 20.5-131 106.4-302.3 106.4-279.2 0-506.4-218-506.4-486S289.1 28 568.3 28c185.7 0 291.6 93.6 315.1 116.9 28.1 22.4 45.5 54.6 47.9 88.7 2.5 36.6-11.4 71.4-39.3 98.1zM837.4 199l-2-1.5-1.8-1.8c-9.7-9.9-100-97.1-265.3-97.1-239.8 0-434.8 186.4-434.8 415.5s195.1 415.5 434.8 415.5c151.8 0 245.3-80.1 255.4-89.2l1.4-1.3 1.6-1.1c13.7-9.8 22.4-24.2 23.9-39.4 1.6-15.9-4.1-30.9-16.3-43.5L658.9 575.2C626 541.3 627 487 661.1 454.3l181.1-173.1c12.7-12.1 18.8-27 17.8-42.8-1.1-14.9-9.3-29.3-22.6-39.4zM600.5 325.7c-31.8 0-60.5-18.9-72.7-47.9-12.2-29-5.4-62.3 17.2-84.4 22.5-22.1 56.4-28.7 85.8-16.6 29.4 12 48.5 40.4 48.4 71.7 0 20.5-8.3 40.2-23.1 54.7-14.8 14.4-34.8 22.5-55.6 22.5z" fill="#515151" p-id="2418"></path></svg>