<?xml version="1.0" standalone="no"?><!DOCTYPE svg PUBLIC "-//W3C//DTD SVG 1.1//EN" "http://www.w3.org/Graphics/SVG/1.1/DTD/svg11.dtd"><svg t="1683987118769" class="icon" viewBox="0 0 1024 1024" version="1.1" xmlns="http://www.w3.org/2000/svg" p-id="3628" xmlns:xlink="http://www.w3.org/1999/xlink" width="200" height="200"><path d="M1013.678 756.452H798.446L685.4 847.624l-92.286 81.368h420.562a10.32 10.32 0 0 0 10.322-10.322v-151.896a10.32 10.32 0 0 0-10.32-10.322zM151.272 494.736c0 138.17 125.308 266.81 266.736 266.81s266.738-128.638 266.738-266.808c-9.544-139.006-125.31-248.812-266.738-248.812-141.426 0-257.192 109.804-266.736 248.81z m266.738-70.276c49.074 0 88.856 39.782 88.856 88.856s-39.782 88.856-88.856 88.856-88.856-39.782-88.856-88.856 39.782-88.856 88.856-88.856z" fill="#808B95" p-id="3629"></path><path d="M418.01 743.546c-141.428 0-257.194-109.804-266.738-248.81-0.422 6.14-0.654 12.334-0.654 18.58 0 147.676 119.716 267.39 267.39 267.39S685.4 660.992 685.4 513.316c0-6.248-0.232-12.44-0.654-18.58-9.542 139.006-125.308 248.81-266.736 248.81zM757.096 756.452L447 928.992h146.116c84.636-35.584 156.164-96.18 205.33-172.54z" fill="#5E6B75" p-id="3630"></path><path d="M418.01 910.848c224.632 0 407.852-195.194 417.578-417.43-9.724-222.236-192.946-399.43-417.578-399.43C193.378 93.99 10.156 271.184 0.432 493.42c9.726 222.234 192.946 417.428 417.578 417.428z m0-332.55c-35.89 0-64.982-29.094-64.982-64.982 0-35.89 29.094-64.982 64.982-64.982s64.982 29.094 64.982 64.982-29.094 64.982-64.982 64.982z m219.32-227.772c46.508-14.844 96.244 10.824 111.088 57.334 14.844 46.508-10.824 96.244-57.334 111.088-46.508 14.844-96.244-10.826-111.09-57.334-14.842-46.508 10.826-96.244 57.336-111.088z m-118.4 299.64c39.292-28.976 94.632-20.614 123.608 18.678s20.612 94.632-18.678 123.608c-39.292 28.976-94.634 20.614-123.608-18.678-28.976-39.292-20.614-94.632 18.678-123.608z m-100.92-483.68c48.82 0 88.398 39.576 88.398 88.396s-39.576 88.396-88.398 88.396c-48.82 0-88.396-39.576-88.396-88.396s39.576-88.396 88.396-88.396z m-100.92 483.68c39.292 28.976 47.654 84.316 18.678 123.608s-84.316 47.654-123.608 18.678-47.654-84.316-18.678-123.608 84.316-47.654 123.608-18.678z m-118.4-299.64c46.508 14.844 72.178 64.58 57.334 111.088s-64.58 72.178-111.088 57.334-72.178-64.58-57.334-111.088c14.844-46.51 64.58-72.178 111.088-57.334z" fill="#F6E080" p-id="3631"></path><path d="M418.01 892.848C193.378 892.848 10.158 715.654 0.432 493.418A424.34 424.34 0 0 0 0 512c0 230.86 187.15 418.01 418.01 418.01S836.02 742.86 836.02 512c0-6.228-0.162-12.418-0.432-18.58-9.726 222.234-192.946 399.428-417.578 399.428z" fill="#ECCD61" p-id="3632"></path><path d="M717.166 870.698c-8.57 0-15.514 6.944-15.514 15.514s6.946 15.514 15.514 15.514h16.526a15.514 15.514 0 0 0 0-31.028zM806.414 870.698h-16.528c-8.57 0-15.514 6.944-15.514 15.514s6.946 15.514 15.514 15.514h16.528a15.514 15.514 0 0 0 0-31.028zM894.646 886.212a15.512 15.512 0 0 0-15.514-15.514h-16.526c-8.57 0-15.514 6.944-15.514 15.514s6.946 15.514 15.514 15.514h16.526a15.512 15.512 0 0 0 15.514-15.514zM935.326 901.726h16.526a15.514 15.514 0 0 0 0-31.028h-16.526c-8.57 0-15.514 6.944-15.514 15.514s6.946 15.514 15.514 15.514zM806.414 790.54h-16.528a15.514 15.514 0 0 0 0 31.028h16.528c8.568 0 15.514-6.944 15.514-15.514s-6.946-15.514-15.514-15.514zM862.606 821.57h16.526c8.57 0 15.514-6.944 15.514-15.514s-6.946-15.514-15.514-15.514h-16.526c-8.57 0-15.514 6.946-15.514 15.514s6.944 15.514 15.514 15.514zM935.326 821.57h16.526c8.57 0 15.514-6.944 15.514-15.514s-6.946-15.514-15.514-15.514h-16.526a15.514 15.514 0 0 0 0 31.028z" fill="#E7ECF1" p-id="3633"></path></svg>